# xmcd
#
# Track frame offsets: 
#        150
#        13676
#        27094
#        43049
#        60887
#        72452
#        88350
#        104052
#        119506
#        132454
#        152145
#        173443
#        194659
#        210753
#        224665
#        238106
#        252440
#        262153
#        280016
#        293600
#        311644
#        324261
#        336558
#
# Disc length: 4748 seconds
#
# Revision: 0
# Processed by: cddbd v1.5.2PL0 Copyright (c) Steve Scherf et al.
# Submitted via: ExactAudioCopy v1.3
#
DISCID=65128a17
DTITLE=Various Artist - Diamondback #24
DYEAR=2017
DGENRE=Country
TTITLE0=Allen Karl - A Lover's Plea
TTITLE1=B Jeff Stone - Old Tige
TTITLE2=Dennis Blair - A Long Time
TTITLE3=Wendy Ford and Pecos Red - Not OK Corral
TTITLE4=Donna Cunningham - There He Goes
TTITLE5=Tim Buppert - Shake It 'Til It Hurts
TTITLE6=Mitch Snow - The Water's Gettin' Cool In The Pool
TTITLE7=Allen Karl and Donna Cunningham - I May Not Love You
TTITLE8=Bryan Leicher - Throttle To The Bottle
TTITLE9=Phillip Clarkson - Not Having You To Love
TTITLE10=Julie Richardson - Wind Beneath My Wings
TTITLE11=Mak Kaylor - You Make Our House A Home
TTITLE12=Robin Gable - Dallas
TTITLE13=Jay Walker - I'm Country
TTITLE14=Shavonne - My Own Peculiar Way
TTITLE15=Dave Parks - Take It From There
TTITLE16=Bryan Chalker - Truck Driver's Queen
TTITLE17=Polly Parker - The Ghost Of Your Love
TTITLE18=Peter Trenholm - On Calvary's Mountain
TTITLE19=Ray Lani - Take A Knee
TTITLE20=Jason Chase - My Own Company
TTITLE21=Betty Overstreet - Thank You Jesus For The Empty Grave
TTITLE22=Glenn Erickson and Shari Cyrkin - All Alone
EXTD=
EXTT0=
EXTT1=
EXTT2=
EXTT3=
EXTT4=
EXTT5=
EXTT6=
EXTT7=
EXTT8=
EXTT9=
EXTT10=
EXTT11=
EXTT12=
EXTT13=
EXTT14=
EXTT15=
EXTT16=
EXTT17=
EXTT18=
EXTT19=
EXTT20=
EXTT21=
EXTT22=
PLAYORDER=
